<svg width="14" height="15" viewBox="0 0 14 15" fill="none" xmlns="http://www.w3.org/2000/svg">
<path fill-rule="evenodd" clip-rule="evenodd" d="M7 14.5C10.866 14.5 14 11.366 14 7.5C14 3.63401 10.866 0.5 7 0.5C3.13401 0.5 0 3.63401 0 7.5C0 11.366 3.13401 14.5 7 14.5ZM7.625 5C7.625 4.65482 7.34518 4.375 7 4.375C6.65482 4.375 6.375 4.65482 6.375 5V7.5C6.375 7.64621 6.42626 7.78779 6.51986 7.90012L9.01986 10.9001C9.24084 11.1653 9.63494 11.2011 9.90012 10.9801C10.1653 10.7592 10.2011 10.3651 9.98014 10.0999L7.625 7.27372V5Z" fill="#E63B2E"/>
</svg>
