<svg width="15" height="15" viewBox="0 0 15 15" fill="none" xmlns="http://www.w3.org/2000/svg">
<g clip-path="url(#clip0_5_1437)">
<path fill-rule="evenodd" clip-rule="evenodd" d="M2.74249 1.94875C2.74249 1.14863 3.39111 0.5 4.19123 0.5H9.8837C10.6839 0.5 11.3325 1.14863 11.3325 1.94875V8.58996C11.3325 9.39008 10.6839 10.0387 9.8837 10.0387H4.19123C3.39111 10.0387 2.74249 9.39008 2.74249 8.58996V1.94875ZM8.17907 13.3584V11.3583H5.89593V13.3584C5.89593 13.6612 6.0162 13.9516 6.23029 14.1656C6.44437 14.3797 6.73473 14.5 7.0375 14.5C7.34026 14.5 7.63062 14.3797 7.84471 14.1656C8.05879 13.9516 8.17907 13.6612 8.17907 13.3584ZM5.38326 2.875C5.72844 2.875 6.00826 3.15482 6.00826 3.5V7C6.00826 7.34518 5.72844 7.625 5.38326 7.625C5.03809 7.625 4.75826 7.34518 4.75826 7V3.5C4.75826 3.15482 5.03809 2.875 5.38326 2.875ZM9.31668 3.5C9.31668 3.15482 9.03685 2.875 8.69168 2.875C8.3465 2.875 8.06668 3.15482 8.06668 3.5V7C8.06668 7.34518 8.3465 7.625 8.69168 7.625C9.03685 7.625 9.31668 7.34518 9.31668 7V3.5Z" fill="#E63B2E"/>
</g>
<defs>
<clipPath id="clip0_5_1437">
<rect width="14" height="14" fill="white" transform="translate(0.0374756 0.5)"/>
</clipPath>
</defs>
</svg>
