<svg width="13" height="15" viewBox="0 0 13 15" fill="none" xmlns="http://www.w3.org/2000/svg">
<path fill-rule="evenodd" clip-rule="evenodd" d="M13 10.1915C13 13.1643 10.3073 14.4999 6.53746 14.4999C2.76767 14.4999 0.0749512 13.1643 0.0749512 10.2131C0.0749512 6.98184 1.69057 5.34455 4.92183 3.70738L3.77755 1.57721C3.7093 1.47045 3.6713 1.34718 3.66761 1.22052C3.66391 1.09387 3.69467 0.968586 3.75658 0.858032C3.81849 0.747478 3.90924 0.655798 4.01916 0.592767C4.12908 0.529737 4.25404 0.497719 4.38072 0.500126H8.94757C9.06634 0.503146 9.18238 0.536339 9.28478 0.596582C9.38718 0.656826 9.47256 0.742136 9.5329 0.844484C9.59318 0.946831 9.62648 1.06285 9.62968 1.18161C9.63278 1.30038 9.60558 1.41798 9.55078 1.52336L8.15309 3.70738C11.3844 5.32301 13 6.96029 13 10.1915ZM7.16245 5.38733C7.16245 5.04215 6.88263 4.76233 6.53745 4.76233C6.19227 4.76233 5.91245 5.04215 5.91245 5.38733V6.01388C4.98544 6.05273 4.24582 6.81655 4.24582 7.75311C4.24582 8.57118 4.81543 9.27887 5.6146 9.45369L7.0877 9.77593C7.37441 9.83864 7.57914 10.0929 7.57914 10.3868C7.57914 10.7323 7.29901 11.0123 6.95413 11.0123H6.12082C5.84967 11.0123 5.61732 10.8393 5.53123 10.5957C5.4162 10.2702 5.05911 10.0997 4.73366 10.2147C4.40821 10.3297 4.23764 10.6868 4.35267 11.0123C4.58761 11.677 5.18713 12.1707 5.91245 12.2509V12.8873C5.91245 13.2325 6.19227 13.5123 6.53745 13.5123C6.88263 13.5123 7.16245 13.2325 7.16245 12.8873V12.2509C8.10018 12.1472 8.82914 11.3517 8.82914 10.3868C8.82914 9.50594 8.21582 8.74314 7.35482 8.5548L5.88173 8.23256C5.65642 8.18327 5.49582 7.98375 5.49582 7.75311C5.49582 7.48206 5.71555 7.26233 5.98661 7.26233H6.95413C7.13918 7.26233 7.30481 7.34196 7.42014 7.47082C7.47433 7.53136 7.51653 7.60197 7.54373 7.67894C7.65876 8.00439 8.01584 8.17496 8.34129 8.05993C8.66674 7.9449 8.83731 7.58783 8.72228 7.26238C8.63974 7.02883 8.51258 6.81709 8.35156 6.63717C8.05254 6.30308 7.63365 6.076 7.16245 6.0238V5.38733Z" fill="#E63B2E"/>
</svg>
