<svg width="14" height="15" viewBox="0 0 14 15" fill="none" xmlns="http://www.w3.org/2000/svg">
<path fill-rule="evenodd" clip-rule="evenodd" d="M2 6.49991C2 4.29077 3.79086 2.49991 6 2.49991C8.20914 2.49991 10 4.29077 10 6.49991C10 8.70905 8.20914 10.4999 6 10.4999C3.79086 10.4999 2 8.70905 2 6.49991ZM6 0.499908C2.68629 0.499908 0 3.1862 0 6.49991C0 9.81362 2.68629 12.4999 6 12.4999C7.29578 12.4999 8.49562 12.0891 9.47642 11.3907L12.2929 14.2072C12.6834 14.5977 13.3166 14.5977 13.7071 14.2072C14.0976 13.8167 14.0976 13.1835 13.7071 12.793L10.8907 9.97656C11.5892 8.99572 12 7.79579 12 6.49991C12 3.1862 9.31371 0.499908 6 0.499908Z" fill="#E63B2E"/>
</svg>
